<svg width="118" height="40" viewBox="0 0 118 40" fill="none" xmlns="http://www.w3.org/2000/svg">
<g clip-path="url(#clip0_497_16912)">
<path d="M28.5131 0H11.4869C5.14287 0 0 5.14287 0 11.4869V28.5131C0 34.8571 5.14287 40 11.4869 40H28.5131C34.8571 40 40 34.8571 40 28.5131V11.4869C40 5.14287 34.8571 0 28.5131 0Z" fill="url(#paint0_linear_497_16912)"/>
<path d="M29.3694 9.49805H24.0989C23.4719 9.49805 22.9667 10.0068 22.9667 10.6303V15.779C22.9667 16.0298 22.7624 16.2304 22.5152 16.2304H17.3665C16.7395 16.2304 16.2343 16.7392 16.2343 17.3626V22.5113C16.2343 22.7621 16.0301 22.9628 15.7829 22.9628H10.6342C10.0071 22.9628 9.50195 23.4715 9.50195 24.095V29.3655C9.50195 29.9925 10.0107 30.4977 10.6342 30.4977H15.9047C16.5317 30.4977 17.0369 29.9889 17.0369 29.3655V24.2168C17.0369 23.966 17.2411 23.7653 17.4883 23.7653H22.637C23.264 23.7653 23.7692 23.2566 23.7692 22.6331V17.4844C23.7692 17.2336 23.9735 17.033 24.2207 17.033H29.3694C29.9964 17.033 30.5016 16.5242 30.5016 15.9008V10.6303C30.5016 10.0032 29.9928 9.49805 29.3694 9.49805Z" fill="white"/>
<path d="M73.7013 30.8705C68.8392 30.8705 65.0986 27.2732 65.0986 22.3825C65.0986 17.4918 68.9252 13.8945 73.7013 13.8945C78.4773 13.8945 82.3039 17.4918 82.3039 22.3252C82.3039 27.1586 78.506 30.8705 73.7013 30.8705ZM77.5279 22.3825C77.5279 20.2543 75.9155 18.3553 73.6726 18.3553C71.573 18.3553 69.8747 20.1969 69.8747 22.3825C69.8747 24.5681 71.5443 26.4098 73.7013 26.4098C75.8582 26.4098 77.5279 24.5108 77.5279 22.3825Z" fill="white"/>
<path d="M84.7227 29.9213V9.54504C84.7227 9.29065 84.9269 9.08643 85.1813 9.08643H89.0401C89.2945 9.08643 89.4987 9.29065 89.4987 9.54504V29.9213C89.4987 30.1756 89.2945 30.3799 89.0401 30.3799H85.1813C84.9269 30.3799 84.7227 30.1756 84.7227 29.9213Z" fill="white"/>
<path d="M92.9521 29.9213V9.54504C92.9521 9.29065 93.1564 9.08643 93.4108 9.08643H97.2696C97.524 9.08643 97.7282 9.29065 97.7282 9.54504V29.9213C97.7282 30.1756 97.524 30.3799 97.2696 30.3799H93.4108C93.1564 30.3799 92.9521 30.1756 92.9521 29.9213Z" fill="white"/>
<path d="M63.2179 13.8623H57.8327C57.5819 13.8623 57.3777 14.0665 57.3777 14.3173V17.4238C57.3777 17.6602 57.1842 17.8537 56.9477 17.8537H53.5296C53.2824 17.8537 53.0781 18.0544 53.0781 18.3052V29.9354C53.0781 30.1826 53.2788 30.3868 53.5296 30.3868H57.4278C57.675 30.3868 57.8793 30.1862 57.8793 29.9354V19.0934C57.8793 18.8569 58.0728 18.6635 58.3092 18.6635H63.2179C63.4687 18.6635 63.6729 18.4592 63.6729 18.2084V14.3209C63.6729 14.0701 63.4687 13.8659 63.2179 13.8659V13.8623Z" fill="white"/>
<path d="M113.622 30.3654C113.371 30.3654 113.171 30.1647 113.171 29.9139V29.2618C113.171 29.0504 112.913 28.9501 112.769 29.1077C112.44 29.4696 111.963 29.9497 111.558 30.1719C110.688 30.6484 109.588 30.9135 108.42 30.9135C103.701 30.9135 100.419 27.2016 100.419 22.3682C100.419 17.5348 103.844 13.8516 108.42 13.8516C109.839 13.8516 111.186 14.26 112.167 15.0483C112.339 15.188 112.572 15.4245 112.766 15.6395C112.909 15.7935 113.167 15.6932 113.167 15.4854V14.8512C113.167 14.6004 113.368 14.3998 113.619 14.3998H117.492C117.742 14.3998 117.943 14.6004 117.943 14.8512V29.9175C117.943 30.1683 117.742 30.3689 117.492 30.3689H113.619L113.622 30.3654ZM113.171 22.3646C113.171 20.1217 111.358 18.3087 109.115 18.3087C106.872 18.3087 105.202 20.1217 105.202 22.422C105.202 24.7222 106.958 26.4492 109.172 26.4492C111.386 26.4492 113.171 24.6649 113.171 22.3646Z" fill="white"/>
</g>
<defs>
<linearGradient id="paint0_linear_497_16912" x1="0.974561" y1="1.48334" x2="39.9498" y2="39.416" gradientUnits="userSpaceOnUse">
<stop stop-color="#69F0AE"/>
<stop offset="1" stop-color="#00C853"/>
</linearGradient>
<clipPath id="clip0_497_16912">
<rect width="117.947" height="40" fill="white"/>
</clipPath>
</defs>
</svg>
